<svg style="display: none;" xmlns="http://www.w3.org/2000/svg">


<symbol id="icon-instagram" fill="inherit" width="100%" height="100%" viewBox="0 0 32 32">
<path d="M17.437 21.42C16.2462 21.7858 14.9675 21.7203 13.819 21.2345C13.0855 20.9254 12.4285 20.455 11.8954 19.8569C11.3623 19.2589 10.9663 18.5482 10.736 17.776C10.5056 17.0038 10.4466 16.1893 10.5632 15.3912C10.6799 14.593 10.9692 13.8311 11.4104 13.1602C11.8516 12.4893 12.4336 11.9262 13.1147 11.5113C13.7958 11.0964 14.559 10.8402 15.3492 10.761C16.1395 10.6818 16.9372 10.7816 17.6849 11.0533C18.4326 11.3249 19.1118 11.7617 19.6735 12.332C20.5546 13.2243 21.1035 14.3998 21.2264 15.6576C21.3494 16.9154 21.0388 18.1776 20.3476 19.2286C19.6565 20.2796 18.6277 21.0541 17.437 21.42Z" fill="inherit"/>
<path fill-rule="evenodd" clip-rule="evenodd" d="M2.34315 2.34315C0 4.68629 0 8.45753 0 16C0 23.5425 0 27.3137 2.34315 29.6569C4.68629 32 8.45753 32 16 32C23.5425 32 27.3137 32 29.6569 29.6569C32 27.3137 32 23.5425 32 16C32 8.45753 32 4.68629 29.6569 2.34315C27.3137 0 23.5425 0 16 0C8.45753 0 4.68629 0 2.34315 2.34315ZM12.7086 8.42271C11.7046 8.84529 10.7923 9.46467 10.0239 10.2455C8.47196 11.8224 7.6001 13.9612 7.6001 16.1914C7.6001 18.4215 8.47196 20.5603 10.0239 22.1372C11.5758 23.7142 13.6806 24.6001 15.8754 24.6001C18.0701 24.6001 20.175 23.7142 21.7269 22.1372C22.4953 21.3564 23.1049 20.4294 23.5208 19.4092C23.9366 18.3891 24.1507 17.2956 24.1507 16.1914C24.1507 15.0871 23.9366 13.9937 23.5208 12.9735C23.1049 11.9533 22.4953 11.0263 21.7269 10.2455C20.9585 9.46467 20.0462 8.84529 19.0422 8.42271C18.0382 8.00013 16.9621 7.78263 15.8754 7.78263C14.7887 7.78263 13.7126 8.00013 12.7086 8.42271ZM26.4343 8.38941C26.3289 8.63288 26.1765 8.85238 25.986 9.0349C25.6157 9.38988 25.1238 9.58423 24.6147 9.57669C24.1057 9.56915 23.6195 9.36031 23.2595 8.99451C22.8996 8.62871 22.694 8.13475 22.6866 7.61748C22.6792 7.10022 22.8705 6.60038 23.2198 6.22407C23.3994 6.03058 23.6154 5.87567 23.855 5.76853C24.0947 5.66139 24.353 5.60419 24.6147 5.60031C24.8765 5.59643 25.1363 5.64596 25.3789 5.74596C25.6215 5.84596 25.8418 5.9944 26.027 6.18249C26.2121 6.37058 26.3581 6.59449 26.4566 6.84098C26.555 7.08747 26.6037 7.35151 26.5999 7.61748C26.5961 7.88346 26.5398 8.14595 26.4343 8.38941Z" fill="inherit"/>
</symbol>

<symbol id="icon-facebook" fill="inherit" width="100%" height="100%" viewBox="0 0 32 32">
<path d="M2.34315 2.34315C0 4.68629 0 8.45753 0 16C0 23.5425 0 27.3137 2.34315 29.6569C4.65215 31.9659 8.34792 31.9995 15.6727 32C15.618 31.9993 15.5739 31.9548 15.5739 31.9V19.9C15.5739 19.8448 15.5291 19.8 15.4739 19.8H12.1C12.0448 19.8 12 19.7553 12 19.7V15.5075C12 15.4522 12.0448 15.4075 12.1 15.4075H15.4739C15.5291 15.4075 15.5739 15.3627 15.5739 15.3075V11.6557C15.5739 8.70743 17.685 6 22.5494 6C24.2315 6 25.5393 6.12432 25.8852 6.1606C25.9367 6.166 25.9742 6.21013 25.9728 6.26191L25.8633 10.1743C25.8618 10.2287 25.8174 10.272 25.7629 10.2715C25.4073 10.2687 24.1297 10.2593 22.7545 10.2593C21.0003 10.2593 20.7193 10.989 20.7193 12.2001V15.3075C20.7193 15.3627 20.764 15.4075 20.8193 15.4075H25.8946C25.9519 15.4075 25.9975 15.4555 25.9945 15.5127L25.7752 19.7053C25.7724 19.7584 25.7285 19.8 25.6753 19.8H20.8193C20.764 19.8 20.7193 19.8448 20.7193 19.9V31.9C20.7193 31.9274 20.7082 31.9522 20.6904 31.9703C25.2234 31.8726 27.86 31.4537 29.6569 29.6569C32 27.3137 32 23.5425 32 16C32 8.45753 32 4.68629 29.6569 2.34315C27.3137 0 23.5425 0 16 0C8.45753 0 4.68629 0 2.34315 2.34315Z" fill="inherit"/>
</symbol>

<symbol id="icon-youtube" fill="inherit" width="100%" height="100%" viewBox="0 0 32 32">
<path fill-rule="evenodd" clip-rule="evenodd" d="M2.34315 2.34315C0 4.68629 0 8.45753 0 16C0 23.5425 0 27.3137 2.34315 29.6569C4.68629 32 8.45753 32 16 32C23.5425 32 27.3137 32 29.6569 29.6569C32 27.3137 32 23.5425 32 16C32 8.45753 32 4.68629 29.6569 2.34315C27.3137 0 23.5425 0 16 0C8.45753 0 4.68629 0 2.34315 2.34315ZM13.2558 22.0501L22.7729 16.3843C23.0998 16.1897 23.0983 15.7159 22.7701 15.5234L13.253 9.94161C12.9196 9.74611 12.5 9.98648 12.5 10.3729V21.6204C12.5 22.0083 12.9225 22.2485 13.2558 22.0501Z" fill="inherit"/>
</symbol>

<symbol id="icon-linkedin" width="100%" height="100%" viewBox="0 0 32 32" fill="inherit" >
<path fill-rule="evenodd" clip-rule="evenodd" d="M2.34315 2.34315C0 4.68629 0 8.45753 0 16C0 23.5425 0 27.3137 2.34315 29.6569C4.68629 32 8.45753 32 16 32C23.5425 32 27.3137 32 29.6569 29.6569C32 27.3137 32 23.5425 32 16C32 8.45753 32 4.68629 29.6569 2.34315C27.3137 0 23.5425 0 16 0C8.45753 0 4.68629 0 2.34315 2.34315ZM10.7672 26.4C10.7672 26.4552 10.7224 26.5 10.6672 26.5H6.36559C6.31036 26.5 6.26559 26.4552 6.26559 26.4V13.106C6.26559 13.0508 6.31036 13.006 6.36559 13.006H10.6672C10.7224 13.006 10.7672 13.0508 10.7672 13.106V26.4ZM11.0638 8.8315C11.0638 10.1264 10.0867 11.1626 8.51696 11.1626H8.48757C6.97687 11.1626 6 10.1264 6 8.8315C6 7.50744 7.00694 6.5 8.54675 6.5C10.0868 6.5 11.0346 7.50742 11.0638 8.8315ZM13.2589 26.4998C13.2587 26.4998 13.2588 26.4999 13.2589 26.4998C13.2592 26.435 13.3153 14.7945 13.2626 13.1039C13.2608 13.0469 13.3066 13.0058 13.3636 13.0058H17.6604C17.7157 13.0058 17.7604 13.0505 17.7604 13.1058V14.9164C18.3587 13.9969 19.4295 12.6892 21.8174 12.6892C24.7792 12.6892 27 14.6178 27 18.7626V26.3999C27 26.4551 26.9552 26.4999 26.9 26.4999H22.5987C22.5435 26.4999 22.4987 26.4551 22.4987 26.3999V19.2809C22.4987 17.4669 21.847 16.2295 20.2181 16.2295C18.9746 16.2295 18.2339 17.0641 17.9085 17.8698C17.7896 18.1581 17.7603 18.561 17.7603 18.9643V26.4C17.7603 26.4552 17.7156 26.5 17.6603 26.5L13.2589 26.4998Z" fill="inherit"/>
</symbol>

</svg>

