<svg xmlns="http://www.w3.org/2000/svg" viewBox="-0.5 -0.5 24 24" id="Interface-Essential-Scisor--Streamline-Pixel.svg" height="24" width="24"><desc>Interface Essential Scisor Streamline Icon: https://streamlinehq.com</desc><title>interface-essential-scisor</title><g><path d="m18.6228125 7.6690625 0 1.0925 3.2846875000000004 0 0 1.0925 1.0925 0 0 -2.185 -4.3771875 0z" fill="#227426" stroke-width="1"></path><path d="M20.8078125 9.854062500000001h1.0996875v1.0996875h-1.0996875Z" fill="#227426" stroke-width="1"></path><path d="M18.6228125 10.95375h2.185v1.0925h-2.185Z" fill="#227426" stroke-width="1"></path><path d="M16.430625 8.7615625h2.1921874999999997v1.0925h-2.1921874999999997Z" fill="#227426" stroke-width="1"></path><path d="M16.430625 12.04625h2.1921874999999997v1.0996875h-2.1921874999999997Z" fill="#227426" stroke-width="1"></path><path d="M14.2384375 9.854062500000001h2.1921874999999997v1.0996875h-2.1921874999999997Z" fill="#227426" stroke-width="1"></path><path d="M12.04625 13.145937499999999h4.3843749999999995v1.0925h-4.3843749999999995Z" fill="#227426" stroke-width="1"></path><path d="m14.2384375 4.3843749999999995 1.0925 0 0 -4.3843749999999995 -2.185 0 0 1.0925 1.0925 0 0 3.291875z" fill="#227426" stroke-width="1"></path><path d="M13.145937499999999 4.3843749999999995h1.0925v2.185h-1.0925Z" fill="#227426" stroke-width="1"></path><path d="M12.04625 10.95375h2.1921874999999997v1.0925h-2.1921874999999997Z" fill="#227426" stroke-width="1"></path><path d="M12.04625 6.569375000000001h1.0996875v2.1921874999999997h-1.0996875Z" fill="#227426" stroke-width="1"></path><path d="M12.04625 1.0925h1.0996875v1.0996875h-1.0996875Z" fill="#227426" stroke-width="1"></path><path d="m10.95375 12.04625 0 -1.0925 -1.0996875 0 0 2.1921874999999997 2.1921874999999997 0 0 -1.0996875 -1.0925 0z" fill="#227426" stroke-width="1"></path><path d="M10.95375 8.7615625h1.0925v2.1921874999999997h-1.0925Z" fill="#227426" stroke-width="1"></path><path d="M10.95375 2.1921874999999997h1.0925V4.3843749999999995h-1.0925Z" fill="#227426" stroke-width="1"></path><path d="M9.854062500000001 4.3843749999999995h1.0996875v2.185h-1.0996875Z" fill="#227426" stroke-width="1"></path><path d="M8.7615625 6.569375000000001h1.0925v4.3843749999999995h-1.0925Z" fill="#227426" stroke-width="1"></path><path d="M6.569375000000001 13.145937499999999v-1.0996875H5.476875v-1.0925H4.3843749999999995v-1.0996875H2.1921874999999997v1.0996875H1.0925v1.0925H0v2.1921874999999997h1.0925v1.0925h1.0996875v1.0996875H4.3843749999999995v-1.0996875h1.0925v-1.0925h3.2846875000000004v3.2846875000000004h-1.0925v1.0996875H6.569375000000001v2.185h1.0996875v1.0996875h1.0925V23h2.1921874999999997v-1.0925h1.0925v-1.0996875h1.0996875v-2.185h-1.0996875v-1.0996875h-1.0925v-1.0925h-1.0996875v-3.2846875000000004ZM4.3843749999999995 14.2384375H2.1921874999999997v-2.1921874999999997H4.3843749999999995Zm6.569375000000001 4.3843749999999995v2.185h-2.1921874999999997v-2.185Z" fill="#227426" stroke-width="1"></path></g></svg>