<svg style="display: none;" xmlns="http://www.w3.org/2000/svg">

<symbol id="icon-alarm" width="100%" height="100%" viewBox="0 0 17 21" fill="inherit" >
<desc>Interface Essential Alarm Bell Sleep Streamline Icon: https://streamlinehq.com</desc><title>interface-essential-alarm-bell-sleep</title><g><path d="M21.9075 2.1921874999999997H23v1.0925h-1.0925Z" fill="#227426" stroke-width="1"></path><path d="M20.8078125 3.2846875000000004h1.0996875v1.0925h-1.0996875Z" fill="#227426" stroke-width="1"></path><path d="M17.523125 1.0925h4.3843749999999995v1.0996875h-4.3843749999999995Z" fill="#227426" stroke-width="1"></path><path d="M19.7153125 17.523125h1.0925v2.1921874999999997h-1.0925Z" fill="#227426" stroke-width="1"></path><path d="M19.7153125 4.3771875h1.0925v1.0996875h-1.0925Z" fill="#227426" stroke-width="1"></path><path d="M18.6228125 19.7153125h1.0925v1.0925h-1.0925Z" fill="#227426" stroke-width="1"></path><path d="M18.6228125 16.430625h1.0925v1.0925h-1.0925Z" fill="#227426" stroke-width="1"></path><path d="M18.6228125 7.6690625H23v1.0925h-4.3771875Z" fill="#227426" stroke-width="1"></path><path d="M18.6228125 5.476875h1.0925v1.0925h-1.0925Z" fill="#227426" stroke-width="1"></path><path d="M17.523125 10.95375h1.0996875v5.476875h-1.0996875Z" fill="#227426" stroke-width="1"></path><path d="M17.523125 6.569375000000001h1.0996875v1.0996875h-1.0996875Z" fill="#227426" stroke-width="1"></path><path d="M16.430625 20.8078125h2.1921874999999997v1.0996875h-2.1921874999999997Z" fill="#227426" stroke-width="1"></path><path d="M16.430625 18.615624999999998h1.0925v1.0996875h-1.0925Z" fill="#227426" stroke-width="1"></path><path d="M16.430625 8.7615625h1.0925v2.1921874999999997h-1.0925Z" fill="#227426" stroke-width="1"></path><path d="m8.7615625 19.7153125 1.0996875 0 0 1.0925 3.2846875000000004 0 0 -1.0925 1.0925 0 0 -1.0996875 2.1921874999999997 0 0 -1.0925 -9.854062500000001 0 0 1.0925 2.185 0 0 1.0996875z" fill="#227426" stroke-width="1"></path><path d="M15.338125 7.6690625h1.0925v1.0925h-1.0925Z" fill="#227426" stroke-width="1"></path><path d="M6.5765625000000005 21.9075h9.854062500000001V23H6.5765625000000005Z" fill="#227426" stroke-width="1"></path><path d="M13.145937499999999 6.569375000000001h2.1921874999999997v1.0996875h-2.1921874999999997Z" fill="#227426" stroke-width="1"></path><path d="M9.86125 5.476875h3.2846875000000004v1.0925h-3.2846875000000004Z" fill="#227426" stroke-width="1"></path><path d="M7.6690625 6.569375000000001h2.1921874999999997v1.0996875h-2.1921874999999997Z" fill="#227426" stroke-width="1"></path><path d="M6.5765625000000005 7.6690625h1.0925v1.0925H6.5765625000000005Z" fill="#227426" stroke-width="1"></path><path d="M6.5765625000000005 1.0925h1.0925v1.0996875H6.5765625000000005Z" fill="#227426" stroke-width="1"></path><path d="M4.3843749999999995 20.8078125h2.1921874999999997v1.0996875H4.3843749999999995Z" fill="#227426" stroke-width="1"></path><path d="M5.476875 18.615624999999998h1.0996875v1.0996875H5.476875Z" fill="#227426" stroke-width="1"></path><path d="M5.476875 8.7615625h1.0996875v2.1921874999999997H5.476875Z" fill="#227426" stroke-width="1"></path><path d="M5.476875 4.3771875h2.1921874999999997v1.0996875H5.476875Z" fill="#227426" stroke-width="1"></path><path d="M5.476875 2.1921874999999997h1.0996875v1.0925H5.476875Z" fill="#227426" stroke-width="1"></path><path d="M4.3843749999999995 0h2.1921874999999997v1.0925H4.3843749999999995Z" fill="#227426" stroke-width="1"></path><path d="M4.3843749999999995 10.95375h1.0925v5.476875H4.3843749999999995Z" fill="#227426" stroke-width="1"></path><path d="M4.3843749999999995 3.2846875000000004h1.0925v1.0925H4.3843749999999995Z" fill="#227426" stroke-width="1"></path><path d="M3.2846875000000004 19.7153125H4.3843749999999995v1.0925H3.2846875000000004Z" fill="#227426" stroke-width="1"></path><path d="M3.2846875000000004 16.430625H4.3843749999999995v1.0925H3.2846875000000004Z" fill="#227426" stroke-width="1"></path><path d="M2.1921874999999997 17.523125h1.0925v2.1921874999999997H2.1921874999999997Z" fill="#227426" stroke-width="1"></path><path d="M2.1921874999999997 8.7615625h1.0925v1.0925H2.1921874999999997Z" fill="#227426" stroke-width="1"></path><path d="M1.0996875 12.04625h2.185v1.0925H1.0996875Z" fill="#227426" stroke-width="1"></path><path d="M1.0996875 9.854062500000001h1.0925v1.0996875H1.0996875Z" fill="#227426" stroke-width="1"></path><path d="M0 7.6690625h2.1921874999999997v1.0925H0Z" fill="#227426" stroke-width="1"></path><path d="M0 10.95375h1.0996875v1.0925H0Z" fill="#227426" stroke-width="1"></path></g>
</symbol>

<symbol id="icon-clock" width="100%" height="100%" viewBox="0 0 17 21" fill="inherit" >



</symbol>

</svg>