<svg xmlns="http://www.w3.org/2000/svg" viewBox="-0.5 -0.5 24 24" id="Interface-Essential-Alert-Triangle-1--Streamline-Pixel.svg" height="24" width="24"><desc>Interface Essential Alert Triangle 1 Streamline Icon: https://streamlinehq.com</desc><title>interface-essential-alert-triangle-1</title><g><path d="M21.9075 19.7153125H23v2.1921874999999997h-1.0925Z" fill="#227426" stroke-width="1"></path><path d="M20.8078125 17.523125h1.0996875v2.1921874999999997h-1.0996875Z" fill="#227426" stroke-width="1"></path><path d="M1.0925 21.9075h20.815V23H1.0925Z" fill="#227426" stroke-width="1"></path><path d="M19.7153125 15.3309375h1.0925v2.1921874999999997h-1.0925Z" fill="#227426" stroke-width="1"></path><path d="M18.615624999999998 13.145937499999999h1.0996875v2.185H18.615624999999998Z" fill="#227426" stroke-width="1"></path><path d="M17.523125 10.95375h1.0925v2.1921874999999997h-1.0925Z" fill="#227426" stroke-width="1"></path><path d="M16.430625 8.7615625h1.0925v2.1921874999999997h-1.0925Z" fill="#227426" stroke-width="1"></path><path d="M15.3309375 6.569375000000001h1.0996875v2.1921874999999997h-1.0996875Z" fill="#227426" stroke-width="1"></path><path d="M14.2384375 4.3771875h1.0925v2.1921874999999997h-1.0925Z" fill="#227426" stroke-width="1"></path><path d="M13.145937499999999 2.1921874999999997h1.0925v2.185h-1.0925Z" fill="#227426" stroke-width="1"></path><path d="m13.145937499999999 15.3309375 -3.291875 0 0 1.0996875 -1.0925 0 0 3.2846875000000004 1.0925 0 0 1.0925 3.291875 0 0 -1.0925 1.0925 0 0 -3.2846875000000004 -1.0925 0 0 -1.0996875z" fill="#227426" stroke-width="1"></path><path d="M13.145937499999999 6.569375000000001h-3.291875v1.0996875h-1.0925v4.3771875h1.0925v2.1921874999999997h3.291875v-2.1921874999999997h1.0925v-4.3771875h-1.0925Zm0 4.3843749999999995h-1.0996875v-2.1921874999999997h-1.0925v-1.0925h1.0925v1.0925h1.0996875Z" fill="#227426" stroke-width="1"></path><path d="M12.04625 1.0925h1.0996875v1.0996875h-1.0996875Z" fill="#227426" stroke-width="1"></path><path d="M10.95375 0h1.0925v1.0925h-1.0925Z" fill="#227426" stroke-width="1"></path><path d="M9.854062500000001 1.0925h1.0996875v1.0996875h-1.0996875Z" fill="#227426" stroke-width="1"></path><path d="M8.7615625 2.1921874999999997h1.0925v2.185h-1.0925Z" fill="#227426" stroke-width="1"></path><path d="M7.6690625 4.3771875h1.0925v2.1921874999999997h-1.0925Z" fill="#227426" stroke-width="1"></path><path d="M6.569375000000001 6.569375000000001h1.0996875v2.1921874999999997H6.569375000000001Z" fill="#227426" stroke-width="1"></path><path d="M5.476875 8.7615625h1.0925v2.1921874999999997H5.476875Z" fill="#227426" stroke-width="1"></path><path d="M4.3771875 10.95375h1.0996875v2.1921874999999997H4.3771875Z" fill="#227426" stroke-width="1"></path><path d="M3.2846875000000004 13.145937499999999h1.0925v2.185H3.2846875000000004Z" fill="#227426" stroke-width="1"></path><path d="M2.1921874999999997 15.3309375h1.0925v2.1921874999999997H2.1921874999999997Z" fill="#227426" stroke-width="1"></path><path d="M1.0925 17.523125h1.0996875v2.1921874999999997H1.0925Z" fill="#227426" stroke-width="1"></path><path d="M0 19.7153125h1.0925v2.1921874999999997H0Z" fill="#227426" stroke-width="1"></path></g></svg>