<svg xmlns="http://www.w3.org/2000/svg" viewBox="-0.5 -0.5 24 24" id="Interface-Essential-Navigation-Menu-1--Streamline-Pixel.svg" height="24" width="24"><desc>Interface Essential Navigation Menu 1 Streamline Icon: https://streamlinehq.com</desc><title>interface-essential-navigation-menu-1</title><g><path d="M21.3540625 2.7384375h1.0996875v17.523125h-1.0996875Z" fill="#227426" stroke-width="1"></path><path d="M20.2615625 20.2615625h1.0925v1.0925h-1.0925Z" fill="#227426" stroke-width="1"></path><path d="M20.2615625 1.63875h1.0925v1.0996875h-1.0925Z" fill="#227426" stroke-width="1"></path><path d="M2.7384375 21.3540625h17.523125v1.0996875H2.7384375Z" fill="#227426" stroke-width="1"></path><path d="m16.976875 13.684999999999999 2.1921874999999997 0 0 -1.0925 1.0925 0 0 -2.1921874999999997 -1.0925 0 0 -1.0925 -2.1921874999999997 0 0 1.0925 -1.0925 0 0 2.1921874999999997 1.0925 0 0 1.0925z" fill="#227426" stroke-width="1"></path><path d="m10.4075 13.684999999999999 2.185 0 0 -1.0925 1.0996875 0 0 -2.1921874999999997 -1.0996875 0 0 -1.0925 -2.185 0 0 1.0925 -1.0996875 0 0 2.1921874999999997 1.0996875 0 0 1.0925z" fill="#227426" stroke-width="1"></path><path d="m3.8309375 9.307812499999999 0 1.0925 -1.0925 0 0 2.1921874999999997 1.0925 0 0 1.0925 2.1921874999999997 0 0 -1.0925 1.0996875 0 0 -2.1921874999999997 -1.0996875 0 0 -1.0925 -2.1921874999999997 0z" fill="#227426" stroke-width="1"></path><path d="M2.7384375 0.54625h17.523125v1.0925H2.7384375Z" fill="#227426" stroke-width="1"></path><path d="M1.6459375 20.2615625h1.0925v1.0925H1.6459375Z" fill="#227426" stroke-width="1"></path><path d="M1.6459375 1.63875h1.0925v1.0996875H1.6459375Z" fill="#227426" stroke-width="1"></path><path d="M0.54625 2.7384375h1.0996875v17.523125H0.54625Z" fill="#227426" stroke-width="1"></path></g></svg>