<svg xmlns="http://www.w3.org/2000/svg" viewBox="-0.5 -0.5 24 24" id="Interface-Essential-Calendar-Date--Streamline-Pixel.svg" height="24" width="24"><desc>Interface Essential Calendar Date Streamline Icon: https://streamlinehq.com</desc><title>interface-essential-calendar-date</title><g><path d="m1.6459375 6.569375000000001 19.708125000000003 0 0 15.338125 1.0996875 0 0 -18.6228125 -1.0996875 0 0 -1.0925 -3.2846875000000004 0 0 2.1921874999999997 -1.0925 0 0 -2.1921874999999997 -10.95375 0 0 2.1921874999999997 -1.0925 0 0 -2.1921874999999997 -3.2846875000000004 0 0 1.0925 -1.0996875 0 0 18.6228125 1.0996875 0 0 -15.338125z" fill="#227426" stroke-width="1"></path><path d="M1.6459375 21.9075h19.708125000000003V23H1.6459375Z" fill="#227426" stroke-width="1"></path><path d="M16.976875 0h1.0925v2.1921874999999997h-1.0925Z" fill="#227426" stroke-width="1"></path><path d="m12.5925 10.95375 0 4.3771875 3.2846875000000004 0 0 2.1921874999999997 -3.2846875000000004 0 0 1.0925 4.3843749999999995 0 0 -4.3771875 -3.2846875000000004 0 0 -2.1921874999999997 3.2846875000000004 0 0 -1.0925 -4.3843749999999995 0z" fill="#227426" stroke-width="1"></path><path d="m9.307812499999999 10.95375 -1.0925 0 0 1.0925 -2.1921874999999997 0 0 1.0996875 2.1921874999999997 0 0 4.3771875 -2.1921874999999997 0 0 1.0925 5.476875 0 0 -1.0925 -2.1921874999999997 0 0 -6.569375000000001z" fill="#227426" stroke-width="1"></path><path d="M4.930625 0h1.0925v2.1921874999999997H4.930625Z" fill="#227426" stroke-width="1"></path></g></svg>