<svg xmlns="http://www.w3.org/2000/svg" viewBox="-0.5 -0.5 24 24" id="Interface-Essential-Crown--Streamline-Pixel.svg" height="24" width="24"><desc>Interface Essential Crown Streamline Icon: https://streamlinehq.com</desc><title>interface-essential-crown</title><g><path d="M21.35765625 6.572968749999999h1.0925v2.185h-1.0925Z" fill="#227426" stroke-width="1"></path><path d="M19.16546875 5.47328125h2.1921874999999997v1.0996875h-2.1921874999999997Z" fill="#227426" stroke-width="1"></path><path d="m19.16546875 13.14234375 1.0996875 0 0 -3.2846875000000004 1.0925 0 0 -1.0996875 -2.1921874999999997 0 0 -2.185 -1.0925 0 0 3.2846875000000004 1.0925 0 0 3.2846875000000004z" fill="#227426" stroke-width="1"></path><path d="m18.07296875 14.23484375 -1.0996875 0 0 1.0996875 1.0996875 0 0 1.0925 -13.145937499999999 0 0 -1.0925 1.0996875 0 0 -1.0996875 -1.0996875 0 0 -1.0925 -1.0925 0 0 5.476875 1.0925 0 0 1.0925 13.145937499999999 0 0 -1.0925 1.0925 0 0 -5.476875 -1.0925 0 0 1.0925z" fill="#227426" stroke-width="1"></path><path d="M16.97328125 9.85765625h1.0996875v1.0925h-1.0996875Z" fill="#227426" stroke-width="1"></path><path d="M15.880781249999998 10.95015625h1.0925v1.0996875h-1.0925Z" fill="#227426" stroke-width="1"></path><path d="M14.788281249999999 12.04984375h1.0925v1.0925h-1.0925Z" fill="#227426" stroke-width="1"></path><path d="M13.68859375 14.23484375h2.1921874999999997v1.0996875h-2.1921874999999997Z" fill="#227426" stroke-width="1"></path><path d="M13.68859375 9.85765625h1.0996875v2.1921874999999997h-1.0996875Z" fill="#227426" stroke-width="1"></path><path d="M12.59609375 7.66546875h1.0925v2.1921874999999997h-1.0925Z" fill="#227426" stroke-width="1"></path><path d="M12.59609375 4.38078125h1.0925v2.1921874999999997h-1.0925Z" fill="#227426" stroke-width="1"></path><path d="M10.40390625 6.572968749999999h2.1921874999999997v1.0925h-2.1921874999999997Z" fill="#227426" stroke-width="1"></path><path d="M10.40390625 3.2882812500000003h2.1921874999999997v1.0925h-2.1921874999999997Z" fill="#227426" stroke-width="1"></path><path d="M10.40390625 13.14234375h2.1921874999999997v2.1921874999999997h-2.1921874999999997Z" fill="#227426" stroke-width="1"></path><path d="M9.31140625 7.66546875h1.0925v2.1921874999999997h-1.0925Z" fill="#227426" stroke-width="1"></path><path d="M9.31140625 4.38078125h1.0925v2.1921874999999997h-1.0925Z" fill="#227426" stroke-width="1"></path><path d="M8.211718750000001 9.85765625h1.0996875v2.1921874999999997h-1.0996875Z" fill="#227426" stroke-width="1"></path><path d="M7.11921875 14.23484375h2.1921874999999997v1.0996875h-2.1921874999999997Z" fill="#227426" stroke-width="1"></path><path d="M7.11921875 12.04984375h1.0925v1.0925h-1.0925Z" fill="#227426" stroke-width="1"></path><path d="M6.02671875 10.95015625h1.0925v1.0996875h-1.0925Z" fill="#227426" stroke-width="1"></path><path d="M4.927031250000001 9.85765625h1.0996875v1.0925h-1.0996875Z" fill="#227426" stroke-width="1"></path><path d="m1.6423437500000002 8.75796875 0 1.0996875 1.0996875 0 0 3.2846875000000004 1.0925 0 0 -3.2846875000000004 1.0925 0 0 -3.2846875000000004 -1.0925 0 0 2.185 -2.1921874999999997 0z" fill="#227426" stroke-width="1"></path><path d="M1.6423437500000002 5.47328125h2.1921874999999997v1.0996875h-2.1921874999999997Z" fill="#227426" stroke-width="1"></path><path d="M0.54984375 6.572968749999999h1.0925v2.185H0.54984375Z" fill="#227426" stroke-width="1"></path></g></svg>