<svg xmlns="http://www.w3.org/2000/svg" viewBox="-0.5 -0.5 24 24" id="Interface-Essential-Home-1--Streamline-Pixel.svg" height="24" width="24"><desc>Interface Essential Home 1 Streamline Icon: https://streamlinehq.com</desc><title>interface-essential-home-1</title><g><path d="m4.927031250000001 9.854062500000001 0 -1.0925 1.0996875 0 0 -1.0925 1.0925 0 0 -1.0996875 1.0925 0 0 -1.0925 1.0996875 0 0 -1.0925 1.0925 0 0 -1.0996875 2.1921874999999997 0 0 1.0996875 1.0925 0 0 1.0925 1.0996875 0 0 1.0925 1.0925 0 0 1.0996875 1.0925 0 0 1.0925 1.0996875 0 0 1.0925 1.0925 0 0 12.0534375 1.0996875 0 0 -9.86125 1.0925 0 0 -1.0925 1.0925 0 0 -1.0996875 -1.0925 0 0 -1.0925 -1.0925 0 0 -1.0925 -1.0996875 0 0 -1.0996875 -1.0925 0 0 -1.0925 -1.0996875 0 0 -1.0925 -1.0925 0 0 -1.0996875 -1.0925 0 0 -1.0925 -1.0996875 0 0 -1.0996875 -1.0925 0 0 -1.0925 -2.1921874999999997 0 0 1.0925 -1.0925 0 0 1.0996875 -1.0996875 0 0 1.0925 -1.0925 0 0 1.0996875 -1.0925 0 0 1.0925 -1.0996875 0 0 1.0925 -1.0925 0 0 1.0996875 -1.0925 0 0 1.0925 -1.0996875 0 0 1.0925 -1.0925 0 0 1.0996875 1.0925 0 0 1.0925 1.0996875 0 0 9.86125 1.0925 0 0 -12.0534375 1.0925 0z" fill="#227426" stroke-width="1"></path><path d="m19.16546875 23 0 -1.0925 -4.3771875 0 0 -8.7615625 -1.0996875 0 0 8.7615625 -4.3771875 0 0 -8.7615625 -1.0996875 0 0 8.7615625 -4.3771875 0 0 1.0925 15.3309375 0z" fill="#227426" stroke-width="1"></path><path d="M15.880781249999998 14.2384375h2.1921874999999997v2.1921874999999997h-2.1921874999999997Z" fill="#227426" stroke-width="1"></path><path d="M12.59609375 6.569375000000001h1.0925v2.1921874999999997h-1.0925Z" fill="#227426" stroke-width="1"></path><path d="M10.40390625 5.476875h2.1921874999999997v1.0925h-2.1921874999999997Z" fill="#227426" stroke-width="1"></path><path d="M10.40390625 16.430625h1.0996875v1.0925h-1.0996875Z" fill="#227426" stroke-width="1"></path><path d="M9.31140625 12.04625h4.3771875v1.0996875h-4.3771875Z" fill="#227426" stroke-width="1"></path><path d="M10.40390625 8.7615625h2.1921874999999997v1.0925h-2.1921874999999997Z" fill="#227426" stroke-width="1"></path><path d="M9.31140625 6.569375000000001h1.0925v2.1921874999999997h-1.0925Z" fill="#227426" stroke-width="1"></path><path d="M4.927031250000001 14.2384375h2.1921874999999997v2.1921874999999997h-2.1921874999999997Z" fill="#227426" stroke-width="1"></path></g></svg>