<svg xmlns="http://www.w3.org/2000/svg" viewBox="-0.5 -0.5 24 24" id="Interface-Essential-Key-1--Streamline-Pixel.svg" height="24" width="24"><desc>Interface Essential Key 1 Streamline Icon: https://streamlinehq.com</desc><title>interface-essential-key_1</title><g><path d="M20.26515625 5.476875h1.0925v4.3771875h-1.0925Z" fill="#227426" stroke-width="1"></path><path d="M19.17265625 9.854062500000001h1.0925v1.0996875h-1.0925Z" fill="#227426" stroke-width="1"></path><path d="M19.17265625 4.3843749999999995h1.0925v1.0925h-1.0925Z" fill="#227426" stroke-width="1"></path><path d="m18.07296875 14.2384375 2.1921874999999997 0 0 1.0925 -2.1921874999999997 0 0 3.291875 2.1921874999999997 0 0 1.0925 -2.1921874999999997 0 0 2.1921874999999997 1.0996875 0 0 -1.0996875 2.185 0 0 -3.2846875000000004 -2.185 0 0 -1.0925 2.185 0 0 -3.2846875000000004 -2.185 0 0 -2.1921874999999997 -1.0996875 0 0 3.2846875000000004z" fill="#227426" stroke-width="1"></path><path d="M15.880781249999998 21.9075h2.1921874999999997V23h-2.1921874999999997Z" fill="#227426" stroke-width="1"></path><path d="M14.788281249999999 3.2846875000000004V4.3843749999999995h2.1921874999999997v1.0925h-2.1921874999999997v3.2846875000000004h4.3843749999999995V5.476875h-1.0996875V4.3843749999999995h1.0996875V3.2846875000000004h-1.0996875V2.1921874999999997h-1.0925v1.0925Zm2.1921874999999997 4.3843749999999995H15.884375V6.569375000000001h1.0996875Z" fill="#227426" stroke-width="1"></path><path d="M15.880781249999998 1.0925h1.0996875v1.0996875h-1.0996875Z" fill="#227426" stroke-width="1"></path><path d="m15.880781249999998 10.95375 -1.0925 0 0 -1.0996875 -1.0925 0 0 2.1921874999999997 1.0925 0 0 9.86125 1.0925 0 0 -10.95375z" fill="#227426" stroke-width="1"></path><path d="M13.69578125 4.3843749999999995h1.0925v1.0925h-1.0925Z" fill="#227426" stroke-width="1"></path><path d="m11.503593749999999 6.569375000000001 0 2.1921874999999997 1.0925 0 0 1.0925 1.0996875 0 0 -4.3771875 -1.0996875 0 0 1.0925 -1.0925 0z" fill="#227426" stroke-width="1"></path><path d="M10.40390625 12.04625h3.291875v1.0996875h-3.291875Z" fill="#227426" stroke-width="1"></path><path d="M10.40390625 4.3843749999999995h2.1921874999999997v1.0925h-2.1921874999999997Z" fill="#227426" stroke-width="1"></path><path d="M10.40390625 0h5.476875v1.0925h-5.476875Z" fill="#227426" stroke-width="1"></path><path d="M10.40390625 16.430625h1.0996875v1.0925h-1.0996875Z" fill="#227426" stroke-width="1"></path><path d="M9.31140625 17.523125h1.0925v1.0996875h-1.0925Z" fill="#227426" stroke-width="1"></path><path d="M9.31140625 15.3309375h1.0925v1.0996875h-1.0925Z" fill="#227426" stroke-width="1"></path><path d="M9.31140625 13.145937499999999h1.0925v1.0925h-1.0925Z" fill="#227426" stroke-width="1"></path><path d="M9.31140625 5.476875h1.0925v1.0925h-1.0925Z" fill="#227426" stroke-width="1"></path><path d="M9.31140625 1.0925h1.0925v1.0996875h-1.0925Z" fill="#227426" stroke-width="1"></path><path d="M8.21890625 18.6228125h1.0925v1.0925h-1.0925Z" fill="#227426" stroke-width="1"></path><path d="M8.21890625 14.2384375h1.0925v1.0925h-1.0925Z" fill="#227426" stroke-width="1"></path><path d="M8.21890625 6.569375000000001h1.0925v4.3843749999999995h-1.0925Z" fill="#227426" stroke-width="1"></path><path d="M8.21890625 2.1921874999999997h1.0925v3.2846875000000004h-1.0925Z" fill="#227426" stroke-width="1"></path><path d="M7.11921875 17.523125h1.0996875v1.0996875h-1.0996875Z" fill="#227426" stroke-width="1"></path><path d="M7.11921875 10.95375h1.0996875v1.0925h-1.0996875Z" fill="#227426" stroke-width="1"></path><path d="M6.02671875 16.430625h1.0925v1.0925h-1.0925Z" fill="#227426" stroke-width="1"></path><path d="M6.02671875 12.04625h1.0925v1.0996875h-1.0925Z" fill="#227426" stroke-width="1"></path><path d="M4.93421875 17.523125h1.0925v1.0996875h-1.0925Z" fill="#227426" stroke-width="1"></path><path d="M4.93421875 13.145937499999999h1.0925v1.0925h-1.0925Z" fill="#227426" stroke-width="1"></path><path d="M3.83453125 18.6228125h1.0996875v1.0925h-1.0996875Z" fill="#227426" stroke-width="1"></path><path d="M3.83453125 14.2384375h1.0996875v1.0925h-1.0996875Z" fill="#227426" stroke-width="1"></path><path d="M2.74203125 17.523125h1.0925v1.0996875h-1.0925Z" fill="#227426" stroke-width="1"></path><path d="M2.74203125 15.3309375h1.0925v1.0996875h-1.0925Z" fill="#227426" stroke-width="1"></path><path d="M1.6423437500000002 16.430625h1.0996875v1.0925h-1.0996875Z" fill="#227426" stroke-width="1"></path></g></svg>