<svg xmlns="http://www.w3.org/2000/svg">
<svg width="100%" height="100%" viewBox="0 0 17 21" fill="none" >
<path fill-rule="evenodd" clip-rule="evenodd" d="M4.22413 2.55192C4.07338 2.62247 3.94907 2.76519 3.90726 2.9157C3.88998 2.97792 3.87577 3.16777 3.87568 3.33754L3.8755 3.64619L3.27462 3.65976C2.60206 3.67491 2.42672 3.71197 2.05004 3.91846C1.74665 4.08479 1.38898 4.46202 1.233 4.78023C0.979835 5.29668 1.0004 4.75872 1.0004 10.8631C1.0004 16.9564 0.980778 16.4314 1.22722 16.9343C1.45382 17.3968 1.89314 17.779 2.41154 17.9646L2.67374 18.0585H8.5H14.3263L14.5696 17.9728C15.2532 17.7322 15.7578 17.1892 15.9462 16.4916C15.9962 16.3065 15.9996 15.9459 15.9996 10.8631C15.9996 4.75698 16.0203 5.29705 15.7661 4.77825C15.5873 4.41355 15.225 4.05233 14.8587 3.87358C14.5019 3.69949 14.2405 3.65255 13.6278 3.65255H13.1245L13.1243 3.3407C13.1241 2.97028 13.0915 2.83453 12.9693 2.69534C12.7055 2.3949 12.2023 2.4583 12.0303 2.81366C11.9788 2.91993 11.9684 3.00171 11.9684 3.29707V3.65255H8.5024H5.03646L5.02642 3.26227C5.01735 2.90874 5.00951 2.86194 4.94309 2.76513C4.77673 2.52265 4.47672 2.43369 4.22413 2.55192ZM3.88092 5.16616C3.89467 5.58212 3.94103 5.71076 4.12519 5.84417C4.34668 6.00462 4.62856 5.98886 4.8388 5.80428C5.00196 5.66101 5.03162 5.5618 5.03162 5.15953V4.80867H8.5H11.9684V5.15953C11.9684 5.5618 11.998 5.66101 12.1612 5.80428C12.3757 5.99261 12.6707 6.00204 12.8991 5.82783C13.0604 5.70482 13.1058 5.56819 13.1191 5.16616L13.1309 4.80867H13.6134C14.0247 4.80867 14.1203 4.81783 14.262 4.87086C14.4713 4.94917 14.6583 5.12865 14.7628 5.3516L14.8435 5.52365L14.8534 6.45919L14.8633 7.39474H8.5H2.13666L2.14706 6.45919C2.1561 5.64233 2.16431 5.50822 2.21162 5.40195C2.29797 5.20809 2.41057 5.06317 2.54298 4.97555C2.76094 4.83131 2.85321 4.81312 3.37791 4.8108L3.86908 4.80867L3.88092 5.16616ZM14.8517 12.3767L14.8435 16.2026L14.764 16.3699C14.6687 16.5704 14.5046 16.7395 14.3141 16.8334L14.1741 16.9023H8.5H2.82586L2.68509 16.833C2.49046 16.7371 2.32991 16.5723 2.23596 16.372L2.15653 16.2026L2.14825 12.3767L2.13994 8.55087H8.5H14.8601L14.8517 12.3767Z" fill="#AEAEAE" stroke="#AEAEAE" stroke-width="0.2"/>
</svg>

<svg width="100%" height="100%" viewBox="0 0 17 21" fill="none" >
<path fill-rule="evenodd" clip-rule="evenodd" d="M7.77824 2.51893C6.23305 2.6703 4.80492 3.23988 3.55276 4.20416C2.94299 4.67374 2.15111 5.55623 1.6935 6.27612C1.49586 6.58703 1.11115 7.37487 0.97333 7.75085C0.819236 8.17128 0.655001 8.81376 0.574183 9.31229C0.475272 9.92247 0.475272 11.081 0.574183 11.6911C0.714035 12.5537 0.935268 13.2511 1.31394 14.0231C1.72768 14.8665 2.15788 15.4643 2.84677 16.1532C3.5357 16.8421 4.13355 17.2723 4.97695 17.6861C5.74895 18.0647 6.44627 18.286 7.30885 18.4258C7.91903 18.5247 9.07753 18.5247 9.68771 18.4258C10.5503 18.286 11.2476 18.0647 12.0196 17.6861C12.863 17.2723 13.4609 16.8421 14.1498 16.1532C14.8387 15.4643 15.2689 14.8665 15.6826 14.0231C15.9574 13.4628 16.0956 13.0957 16.2437 12.5327C16.4408 11.7829 16.4909 11.3719 16.4909 10.5017C16.4909 9.63156 16.4408 9.22055 16.2437 8.47077C16.0956 7.90776 15.9574 7.54061 15.6826 6.98038C15.2689 6.13699 14.8387 5.53914 14.1498 4.85021C13.4609 4.16131 12.863 3.73112 12.0196 3.31738C11.2484 2.93905 10.5372 2.71334 9.70336 2.58216C9.24327 2.50979 8.21592 2.47605 7.77824 2.51893ZM9.24289 3.77425C10.7692 3.94237 12.1664 4.61902 13.2737 5.72632C14.5728 7.02549 15.2592 8.67629 15.2592 10.5017C15.2592 12.3271 14.5728 13.978 13.2737 15.2771C11.9745 16.5763 10.3237 17.2627 8.49828 17.2627C6.67285 17.2627 5.02205 16.5763 3.72288 15.2771C2.42371 13.978 1.73732 12.3271 1.73732 10.5017C1.73732 8.67629 2.42371 7.02549 3.72288 5.72632C4.815 4.63421 6.22679 3.94443 7.71576 3.7755C8.06026 3.73644 8.89336 3.73575 9.24289 3.77425ZM8.22859 6.27339C8.07826 6.34166 7.95581 6.49068 7.90488 6.66738C7.8789 6.75759 7.87148 7.33934 7.87837 8.74888C7.88767 10.6543 7.88961 10.7084 7.95252 10.8304C8.00486 10.9318 8.25445 11.1356 9.26715 11.9038C9.95467 12.4253 10.58 12.8897 10.6568 12.9357C11.1802 13.2495 11.7988 12.6911 11.5339 12.1439C11.4705 12.0129 11.3446 11.909 10.2938 11.1208L9.1243 10.2436V8.49925C9.1243 7.27849 9.11359 6.72303 9.08868 6.64857C8.99991 6.38348 8.77041 6.21489 8.49828 6.21489C8.42081 6.21489 8.29946 6.24122 8.22859 6.27339Z" fill="#AEAEAE" stroke="#AEAEAE" stroke-width="0.2"/>
</svg>

</svg>